{
    "asset" : {
        "generator" : "Khronos glTF Blender I/O v3.4.50",
        "version" : "2.0"
    },
    "scene" : 0,
    "scenes" : [
        {
            "name" : "Scene",
            "nodes" : [
                3
            ]
        }
    ],
    "nodes" : [
        {
            "mesh" : 0,
            "name" : "defaultMaterial",
            "scale" : [
                0.6483200192451477,
                0.6483200788497925,
                0.6483200788497925
            ],
            "translation" : [
                -0.042713142931461334,
                -0.08124333620071411,
                -0.9368299841880798
            ]
        },
        {
            "children" : [
                0
            ],
            "name" : "haywire_blaster"
        },
        {
            "children" : [
                1
            ],
            "name" : "Collada visual scene group",
            "rotation" : [
                0.70710688829422,
                0,
                0,
                0.7071066498756409
            ]
        },
        {
            "children" : [
                2
            ],
            "name" : "Sketchfab_model",
            "rotation" : [
                -0.7071069478988647,
                0,
                0,
                0.7071066498756409
            ],
            "scale" : [
                2.5860776901245117,
                2.586077928543091,
                2.586077928543091
            ],
            "translation" : [
                0,
                1.520437240600586,
                2.6863317489624023
            ]
        }
    ],
    "materials" : [
        {
            "doubleSided" : true,
            "emissiveFactor" : [
                1,
                1,
                1
            ],
            "emissiveTexture" : {
                "index" : 0
            },
            "name" : "02___Default",
            "normalTexture" : {
                "index" : 1
            },
            "occlusionTexture" : {
                "index" : 2
            },
            "pbrMetallicRoughness" : {
                "baseColorTexture" : {
                    "index" : 3
                },
                "metallicRoughnessTexture" : {
                    "index" : 2
                }
            }
        }
    ],
    "meshes" : [
        {
            "name" : "defaultMaterial",
            "primitives" : [
                {
                    "attributes" : {
                        "POSITION" : 0,
                        "TEXCOORD_0" : 1,
                        "NORMAL" : 2
                    },
                    "indices" : 3,
                    "material" : 0
                }
            ]
        }
    ],
    "textures" : [
        {
            "sampler" : 0,
            "source" : 0
        },
        {
            "sampler" : 0,
            "source" : 1
        },
        {
            "sampler" : 0,
            "source" : 2
        },
        {
            "sampler" : 0,
            "source" : 3
        }
    ],
    "images" : [
        {
            "bufferView" : 4,
            "mimeType" : "image/jpeg",
            "name" : "02___Default_emissive"
        },
        {
            "bufferView" : 5,
            "mimeType" : "image/png",
            "name" : "02___Default_normal"
        },
        {
            "bufferView" : 6,
            "mimeType" : "image/png",
            "name" : "02___Default_metallicRoughness"
        },
        {
            "bufferView" : 7,
            "mimeType" : "image/jpeg",
            "name" : "02___Default_baseColor"
        }
    ],
    "accessors" : [
        {
            "bufferView" : 0,
            "componentType" : 5126,
            "count" : 1961,
            "max" : [
                0.08649390190839767,
                0.2501159906387329,
                1
            ],
            "min" : [
                -0.08649390190839767,
                -0.2501159906387329,
                -1
            ],
            "type" : "VEC3"
        },
        {
            "bufferView" : 1,
            "componentType" : 5126,
            "count" : 1961,
            "type" : "VEC2"
        },
        {
            "bufferView" : 2,
            "componentType" : 5126,
            "count" : 1961,
            "type" : "VEC3"
        },
        {
            "bufferView" : 3,
            "componentType" : 5123,
            "count" : 3618,
            "type" : "SCALAR"
        }
    ],
    "bufferViews" : [
        {
            "buffer" : 0,
            "byteLength" : 23532,
            "byteOffset" : 0,
            "target" : 34962
        },
        {
            "buffer" : 0,
            "byteLength" : 15688,
            "byteOffset" : 23532,
            "target" : 34962
        },
        {
            "buffer" : 0,
            "byteLength" : 23532,
            "byteOffset" : 39220,
            "target" : 34962
        },
        {
            "buffer" : 0,
            "byteLength" : 7236,
            "byteOffset" : 62752,
            "target" : 34963
        },
        {
            "buffer" : 0,
            "byteLength" : 152449,
            "byteOffset" : 69988
        },
        {
            "buffer" : 0,
            "byteLength" : 1007277,
            "byteOffset" : 222440
        },
        {
            "buffer" : 0,
            "byteLength" : 1430562,
            "byteOffset" : 1229720
        },
        {
            "buffer" : 0,
            "byteLength" : 439559,
            "byteOffset" : 2660284
        }
    ],
    "samplers" : [
        {
            "magFilter" : 9729,
            "minFilter" : 9987
        }
    ],
    "buffers" : [
        {
            "byteLength" : 3099844,
            "uri" : "data:application/octet-stream;base64,"
        }
    ]
}
