{
    "asset" : {
        "generator" : "Khronos glTF Blender I/O v3.4.50",
        "version" : "2.0"
    },
    "scene" : 0,
    "scenes" : [
        {
            "name" : "Scene",
            "nodes" : [
                0,
                1,
                2
            ]
        }
    ],
    "nodes" : [
        {
            "mesh" : 0,
            "name" : "Cube",
            "translation" : [
                0,
                1.2066761255264282,
                -0.002440333366394043
            ]
        },
        {
            "name" : "\u041f\u0443\u0441\u0442\u044b\u0448\u043a\u0430",
            "rotation" : [
                0.5,
                0.5,
                -0.5,
                0.5
            ],
            "translation" : [
                0,
                1.8202497959136963,
                2.112431526184082
            ]
        },
        {
            "name" : "\u041f\u0443\u0441\u0442\u044b\u0448\u043a\u0430.001",
            "rotation" : [
                0.70710688829422,
                0,
                0,
                0.7071066498756409
            ],
            "scale" : [
                0.48466652631759644,
                0.48466652631759644,
                0.48466652631759644
            ],
            "translation" : [
                -1.5865169763565063,
                0.48476913571357727,
                0
            ]
        }
    ],
    "materials" : [
        {
            "doubleSided" : true,
            "name" : "Material",
            "pbrMetallicRoughness" : {
                "baseColorTexture" : {
                    "index" : 0
                },
                "metallicFactor" : 0,
                "roughnessFactor" : 0.5
            }
        }
    ],
    "meshes" : [
        {
            "name" : "Cube",
            "primitives" : [
                {
                    "attributes" : {
                        "POSITION" : 0,
                        "TEXCOORD_0" : 1,
                        "NORMAL" : 2
                    },
                    "indices" : 3,
                    "material" : 0
                }
            ]
        }
    ],
    "textures" : [
        {
            "sampler" : 0,
            "source" : 0
        }
    ],
    "images" : [
        {
            "bufferView" : 4,
            "mimeType" : "image/png",
            "name" : "pistolUVHQ"
        }
    ],
    "accessors" : [
        {
            "bufferView" : 0,
            "componentType" : 5126,
            "count" : 680,
            "max" : [
                0.38235223293304443,
                1.2114602327346802,
                2.4570820331573486
            ],
            "min" : [
                -0.3796156942844391,
                -1.2473944425582886,
                -2.5532310009002686
            ],
            "type" : "VEC3"
        },
        {
            "bufferView" : 1,
            "componentType" : 5126,
            "count" : 680,
            "type" : "VEC2"
        },
        {
            "bufferView" : 2,
            "componentType" : 5126,
            "count" : 680,
            "type" : "VEC3"
        },
        {
            "bufferView" : 3,
            "componentType" : 5123,
            "count" : 966,
            "type" : "SCALAR"
        }
    ],
    "bufferViews" : [
        {
            "buffer" : 0,
            "byteLength" : 8160,
            "byteOffset" : 0,
            "target" : 34962
        },
        {
            "buffer" : 0,
            "byteLength" : 5440,
            "byteOffset" : 8160,
            "target" : 34962
        },
        {
            "buffer" : 0,
            "byteLength" : 8160,
            "byteOffset" : 13600,
            "target" : 34962
        },
        {
            "buffer" : 0,
            "byteLength" : 1932,
            "byteOffset" : 21760,
            "target" : 34963
        },
        {
            "buffer" : 0,
            "byteLength" : 715235,
            "byteOffset" : 23692
        }
    ],
    "samplers" : [
        {
            "magFilter" : 9729,
            "minFilter" : 9987
        }
    ],
    "buffers" : [
        {
            "byteLength" : 738928,
            "uri" : "data:application/octet-stream;base64,"
        }
    ]
}
